<?xml version="1.0" encoding="utf-8"?>
<!-- Generator: Adobe Illustrator 23.0.0, SVG Export Plug-In . SVG Version: 6.00 Build 0)  -->
<svg version="1.1" id="Layer_1" xmlns="http://www.w3.org/2000/svg" xmlns:xlink="http://www.w3.org/1999/xlink" x="0px" y="0px"
	 viewBox="0 0 835.5 228.7" style="enable-background:new 0 0 835.5 228.7;" xml:space="preserve">
<style type="text/css">
	.st0{fill:#F17423;}
	.st1{fill:#155AA9;}
</style>
<g>
	<g>
		<path class="st0" d="M341,0c42,0.4,77.1,31.2,83.2,72.4c2.9,19.6-3.1,36.9-11.4,53.8c-16.5,33.6-38.8,63.4-62.2,92.3
			c-2.2,2.7-4.5,5.3-6.8,8.1c-2,2.4-3.9,2.9-6.1,0.3c-29.6-34.9-57.9-70.8-75.2-113.9C242.6,63.4,275.7,10.7,325.6,1.6
			C330.7,0.7,335.8,0.5,341,0 M276.5,80.5c-0.8,32.4,25.1,64.7,64.2,64.8c35.5,0.1,64.3-27.6,64.5-64.1c0.1-37.2-29.7-64.3-64-64.6
			C305.6,16.4,276.6,45.3,276.5,80.5"/>
		<path class="st1" d="M157.3,105.6l0,41.9c0,7.2-0.1,14.4,0,21.5c0.1,4.4-2.1,6.4-6.2,6.8c-0.3,0-0.7,0.1-1,0.1
			c-16.1,1.7-17.5,0.5-17.5-15.5c0-47.1,0.1-94.1,0.1-141.2c0-8.3,1.2-9.6,9.5-9.6c17.2,0,34.4-0.2,51.6,0.7
			c7.8,0.4,15.9,2.4,23.2,5.3c19.4,7.5,24.1,25.9,22.1,43.7c-1.7,15.1-10.4,25.2-23.9,31.6c-1,0.5-2,1.1-3.6,2
			c13.6,7.5,17.4,20.9,22.5,33.4c5.7,13.7,11.1,27.5,16.6,41.3c2.6,6.6,1.8,7.8-5.2,8.5c-0.3,0-0.7,0.1-1,0.1
			c-15.7,1.2-16.7,0.6-22.4-13.9c-4.7-11.9-9.3-23.9-14.2-35.7c-6.5-15.8-14-20.8-31-20.8C170.7,105.6,164.4,105.6,157.3,105.6
			 M175.3,31.2c0,0.1,0,0.2,0,0.4c-4.7,0-9.3,0.1-14-0.1c-2.8-0.1-3.9,0.9-3.9,3.8c0.1,15,0,30,0.1,45c0,1.2,1.5,3.5,2.3,3.5
			c11.6-0.1,23.5,0.7,34.9-1.3c12.4-2.2,20.1-15,19.4-28c-0.7-11.9-8-19.7-21.3-22C187,31.5,181.1,31.6,175.3,31.2"/>
		<path class="st1" d="M657.2,31.9c-3-0.2-4.9-0.4-6.8-0.4c-23.4,0-46.8,0-70.1-0.1c-7.4,0-8.1-0.9-8.3-8.5
			c-0.3-14.5,1.7-12.5,12.3-12.5c32.1,0,64.1,0.1,96.2,0.1c3.2,0,6.8-0.9,8.3,3.4c1.8,5.1,5.2,10,1.2,15.5
			c-11.3,15.5-22.5,31-33.8,46.6c-18,24.7-35.9,49.4-53.9,74.1c-1,1.4-2,2.9-3.5,5.2c2.9,0.1,4.8,0.3,6.7,0.3
			c25.9,0,51.8,0.1,77.6,0.1c6.4,0,7.3,0.8,8.2,7.2c0.2,1.3,0.2,2.7,0.2,4c-0.2,8.6-1.3,9.7-9.9,9.7c-35.2,0-70.5-0.1-105.7-0.1
			c-3.4,0-7.4,1.1-8.9-3.5c-1.8-5.2-5.1-10.1-0.8-15.9c11.5-15.4,22.6-31,33.9-46.5C618,86,636,61.4,654,36.7
			C654.9,35.4,655.7,34,657.2,31.9"/>
		<path class="st1" d="M25,107.6l0,31.8c0,9.7-0.1,19.4,0,29c0.1,4.5-1.9,6.7-6.3,7.3C2,178,0,176.3,0,159.8L0.1,24.1
			c0-1.5,0-3,0-4.5C0.2,10.8,1.3,9.5,10.3,9.5c17,0,34.1,0.1,51.1,0.3c9.5,0.1,18.4,2.7,27,6.7c11.2,5.1,17.7,13.7,20.3,25.6
			c2.2,10.3,2.6,20.6,0.2,30.7c-3.6,15.4-13.5,25.6-28.2,30.6c-7.4,2.5-15.6,3.5-23.5,4C46.7,108.1,36.2,107.6,25,107.6 M25.2,86.2
			c12,0,23.9,0.6,35.6-0.1c13.8-0.9,21.7-8.5,23.4-22.2c2.1-17.1-3.6-29.1-21.7-31.3c-12-1.5-24.3-0.6-36.4-0.7
			c-0.2,0-0.5,0.4-0.9,0.7L25.2,86.2z"/>
		<path class="st1" d="M467,108c-0.2,2.6-0.5,4.7-0.5,6.8c-0.1,17.7,0,35.4-0.1,53c0,6.9-1,7.9-8.1,8.5c-15.2,1.3-16.8-0.1-16.8-15
			c0-46.7,0.1-93.4,0.1-140.1c0-9.9,1.3-11.3,11.2-11.3c16.7,0,33.4,0.1,50.1,0.4c11.4,0.1,22,3.4,31.8,9.2
			c10.4,6.1,15.1,15.9,16.3,27.2c0.9,7.7,1,15.7,0,23.3c-2.3,17.2-12.8,28.4-28.8,33.9c-7.2,2.5-15.2,3.4-23,3.9
			C488.8,108.5,478.1,108,467,108 M485.1,87.1c4.5,0,9,0.2,13.5,0c17.1-0.6,26.3-8.4,27.6-25.2c1.4-17.6-5-27.8-22.4-29.9
			c-11.2-1.4-22.6-0.7-33.9-1c-3.2-0.1-3.3,2.1-3.3,4.4c0,15.8,0,31.6-0.1,47.5c0,3.4,1.6,4.3,4.6,4.2
			C475.8,87,480.4,87.1,485.1,87.1"/>
		<path class="st1" d="M772.9,70.6c2.5-3.8,4.6-6.8,6.6-9.8c9.7-14.8,19.4-29.5,28.9-44.4c2.4-3.8,5.5-5.6,9.9-5.6
			c3.2,0,6.4-0.3,9.5,0.1c2.7,0.4,5.9,1,7.5,2.8c0.8,1-0.9,4.8-2.2,6.9c-8.1,12.6-16.5,25.1-24.7,37.6
			c-7.1,10.7-14.2,21.4-21.1,32.2c-1.4,2.2-2.3,5.2-2.3,7.8c-0.2,23.2-0.1,46.4-0.2,69.6c0,6.7-1.8,8.6-8.6,8.7
			c-19.6,0.5-16.2-1.4-16.3-15.9c-0.1-20.5,0.2-41.1-0.1-61.6c0-3.4-1.2-7.3-3.1-10.2c-14.9-23.1-30.2-46-45.3-69
			c-1.2-1.9-2.5-5.1-1.7-6.6c0.9-1.6,4.2-2.4,6.5-2.5c17.3-1.1,17.3-1.1,26.6,13.2c8.8,13.6,17.5,27.2,26.2,40.9
			C770,66.4,771.2,68,772.9,70.6"/>
	</g>
</g>
</svg>
