<?xml version="1.0" encoding="UTF-8"?>
<svg width="144px" height="112px" viewBox="0 0 144 112" version="1.1" xmlns="http://www.w3.org/2000/svg" xmlns:xlink="http://www.w3.org/1999/xlink">
    <!-- Generator: Sketch 61.2 (89653) - https://sketch.com -->
    <title>ico-nhan email</title>
    <desc>Created with Sketch.</desc>
    <defs>
        <filter x="-6.0%" y="-6.7%" width="111.9%" height="113.4%" filterUnits="objectBoundingBox" id="filter-1">
            <feOffset dx="0" dy="6" in="SourceAlpha" result="shadowOffsetOuter1"></feOffset>
            <feGaussianBlur stdDeviation="9" in="shadowOffsetOuter1" result="shadowBlurOuter1"></feGaussianBlur>
            <feColorMatrix values="0 0 0 0 0   0 0 0 0 0   0 0 0 0 0  0 0 0 0.427762681 0" type="matrix" in="shadowBlurOuter1" result="shadowMatrixOuter1"></feColorMatrix>
            <feMerge>
                <feMergeNode in="shadowMatrixOuter1"></feMergeNode>
                <feMergeNode in="SourceGraphic"></feMergeNode>
            </feMerge>
        </filter>
    </defs>
    <g id="02.-Listing-+-Search" stroke="none" stroke-width="1" fill="none" fill-rule="evenodd">
        <g id="PC-02.1a-Listing-MuaBan-/-POPUP-2" transform="translate(-658.000000, -236.000000)">
            <g id="#-POPUP" filter="url(#filter-1)" transform="translate(345.000000, 195.000000)">
                <g id="title" transform="translate(70.000000, 50.000000)">
                    <g id="Group-8">
                        <g id="ico-nhan-email" transform="translate(258.000000, 0.000000)">
                            <g id="ico-email" transform="translate(30.773006, 25.867257)" fill-rule="nonzero">
                                <path d="M53.1334682,50.8274372 C53.1334682,51.4896423 52.9121723,52.0415679 52.4696863,52.4830028 C52.0270945,52.8141582 51.5846085,53.0348228 50.9207207,53.0348228 L2.24038296,53.0348228 C1.68724904,53.0348228 1.13400924,52.8140525 0.691417398,52.4830028 C0.248825557,52.0414623 0.0276355193,51.4896423 0.0276355193,50.8274372 L0.0276355193,18.4876595 L53.1334682,18.4876595 L53.1334682,50.8274372 Z" id="Path" fill="#EF7733"></path>
                                <path d="M52.4696863,52.4830028 C52.0270945,52.8141582 51.5846085,53.0348228 50.9207207,53.0348228 L2.24038296,53.0348228 C1.68724904,53.0348228 1.13400924,52.8140525 0.691417398,52.4830028 L26.5804989,30.2978114 L52.4696863,52.4830028 Z" id="Path" fill="#FC975E"></path>
                                <path d="M53.1334682,18.4876595 L45.6101481,23.8960024 L28.0188165,36.4787445 C27.1337387,37.1409496 25.916717,37.1409496 25.0316392,36.4787445 L7.55095564,23.8960024 L0.0276355193,18.4876595 L7.55095564,13.0793167 L23.9252655,1.37965559 L25.1422872,0.496680237 C26.027365,-0.165524868 27.2443867,-0.165524868 28.1294645,0.496680237 L29.3464862,1.37965559 L37.2017502,7.0087687 L41.0740052,9.76807987 L45.6101481,13.0793167 L53.1334682,18.4876595 Z" id="Path" fill="#595959"></path>
                                <path d="M45.6101481,8.22289942 L45.6101481,23.8960024 L28.0188165,36.4787445 C27.1337387,37.1409496 25.916717,37.1409496 25.0316392,36.4787445 L7.55095564,23.8960024 L7.55095564,3.58714678 C7.55095564,2.37301606 8.5466814,1.37965559 9.76370308,1.37965559 L38.6399619,1.37965559 L45.6101481,8.22289942 Z" id="Path" fill="#FFFFFF"></path>
                                <path d="M38.7506098,6.45694871 C38.7506098,7.45030919 39.5250397,8.22289942 40.5207654,8.22289942 L45.6100422,8.22289942 L38.7505039,1.37965559 L38.7506098,6.45694871 L38.7506098,6.45694871 Z" id="Path" fill="#CDD6E0"></path>
                            </g>
                            <g id="Group-2">
                                <polyline id="Fill-7" fill="#275D9C" points="56.3032 0.18008922 58.1088709 4.34838543 62.2873206 6.14927763 58.1088709 7.95016983 56.3032 12.1175611 54.497529 7.95016983 50.3190794 6.14927763 54.497529 4.34838543 56.3032 0.18008922"></polyline>
                                <polyline id="Fill-8" fill="#275D9C" points="109.008083 42.1209681 110.433565 45.4105375 113.732771 46.8322469 110.433565 48.2548612 109.008083 51.5453356 107.581694 48.2548612 104.283395 46.8322469 107.581694 45.4105375 109.008083 42.1209681"></polyline>
                                <polyline id="Fill-9" fill="#275D9C" points="3.78646477 45.3236603 4.83901668 47.7526023 7.2753114 48.8023686 4.83901668 49.8521349 3.78646477 52.2819819 2.73391285 49.8521349 0.298525499 48.8023686 2.73391285 47.7526023 3.78646477 45.3236603"></polyline>
                                <path d="M96.5950686,17.59922 C98.6802103,18.1367727 99.9332915,20.2589296 99.3934049,22.3385528 C98.8544258,24.4181761 96.727545,25.667941 94.6424034,25.1294833 C92.5572617,24.5919305 91.3041805,22.4697736 91.8440671,20.3910554 C92.3821389,18.3114321 94.509927,17.0616672 96.5950686,17.59922" id="Fill-10" fill="#3DADCD"></path>
                                <path d="M20.6180607,20.9663671 C20.6180607,22.3871715 19.4629757,23.5391995 18.0384011,23.5391995 C16.6138266,23.5391995 15.4596489,22.3871715 15.4596489,20.9663671 C15.4596489,19.5455627 16.6138266,18.3935346 18.0384011,18.3935346 C19.4629757,18.3935346 20.6180607,19.5455627 20.6180607,20.9663671" id="Fill-11" fill="#3DADCD"></path>
                            </g>
                        </g>
                    </g>
                </g>
            </g>
        </g>
    </g>
</svg>