<?xml version="1.0" encoding="UTF-8"?>
<svg width="119px" height="39px" viewBox="0 0 119 39" version="1.1" xmlns="http://www.w3.org/2000/svg" xmlns:xlink="http://www.w3.org/1999/xlink">
    <!-- Generator: Sketch 62 (91390) - https://sketch.com -->
    <title>Group 29</title>
    <desc>Created with Sketch.</desc>
    <g id="Symbols" stroke="none" stroke-width="1" fill="none" fill-rule="evenodd">
        <g id="#-FOOTER" transform="translate(-131.000000, -383.000000)">
            <g id="Group-76">
                <g transform="translate(0.000000, 63.000000)">
                    <g id="Group-64" transform="translate(131.000000, 283.000000)">
                        <g id="Group-31">
                            <g id="Group-48">
                                <g id="Group-32" transform="translate(0.000000, 37.000000)">
                                    <g id="Group-29">
                                        <rect id="Rectangle-3" fill="#343434" x="0" y="0" width="118.5408" height="38.94912" rx="3.84"></rect>
                                        <g id="Group-28" transform="translate(9.313920, 6.773760)" fill="#FFFFFF">
                                            <path d="M1.94102931,0 C0.869028422,0 0,0.94969851 0,2.12577623 L0,24.1225438 C0,25.2965776 0.868067143,26.24832 1.94102931,26.24832 L11.6064907,26.24832 C12.6784916,26.24832 13.54752,25.2986215 13.54752,24.1225438 L13.54752,2.12577623 C13.54752,0.951742438 12.6794529,0 11.6064907,0 L1.94102931,0 L1.94102931,0 Z M1.27008,3.44240262 L1.27008,22.8059174 L12.27744,22.8059174 L12.27744,3.44240262 L1.27008,3.44240262 L1.27008,3.44240262 Z M6.77376,25.3877193 C7.24139054,25.3877193 7.62048,25.0024153 7.62048,24.5271187 C7.62048,24.0518221 7.24139054,23.666518 6.77376,23.666518 C6.30612946,23.666518 5.92704,24.0518221 5.92704,24.5271187 C5.92704,25.0024153 6.30612946,25.3877193 6.77376,25.3877193 L6.77376,25.3877193 Z M5.08032,1.72120131 C5.08032,1.95884962 5.22585,2.15150164 5.41744921,2.15150164 L8.13007079,2.15150164 C8.31626211,2.15150164 8.4672,1.95189944 8.4672,1.72120131 C8.4672,1.483553 8.32167,1.29090098 8.13007079,1.29090098 L5.41744921,1.29090098 C5.23125789,1.29090098 5.08032,1.49050319 5.08032,1.72120131 Z" id="iPhone-Vector"></path>
                                            <path d="M21.4897536,8.84672 L22.2009984,6.69266432 L24.6293914,6.69266432 L25.3609574,8.84672 L26.305897,8.84672 L23.9689498,1.99844864 L22.9020826,1.99844864 L20.575296,8.84672 L21.4897536,8.84672 Z M24.4464998,6.0017408 L22.3838899,6.0017408 L23.0544922,4.020416 C23.1865805,3.60382976 23.2983475,3.18724352 23.3999539,2.78081792 L23.4202752,2.78081792 C23.5218816,3.17708288 23.623488,3.58350848 23.7758976,4.03057664 L24.4464998,6.0017408 Z M29.3845709,8.84672 L31.3150925,3.92897024 L30.3803136,3.92897024 L29.4252134,6.69266432 C29.2626432,7.13973248 29.1203942,7.54615808 29.0086272,7.95258368 L28.9781453,7.95258368 C28.8765389,7.54615808 28.7444506,7.13973248 28.5818803,6.69266432 L27.6166195,3.92897024 L26.6615194,3.92897024 L28.5310771,8.84672 L29.3845709,8.84672 Z M33.4386662,8.95848704 C34.1397504,8.95848704 34.6681037,8.61302528 34.9424409,8.22692096 L34.9729229,8.22692096 L35.0440473,8.84672 L35.8568985,8.84672 C35.7959347,8.51141888 35.7756134,8.09483264 35.7756134,7.66808576 L35.7756134,5.82900992 C35.7756134,4.84342784 35.4098304,3.8172032 33.9060557,3.8172032 C33.2862566,3.8172032 32.6969395,3.98993408 32.2905139,4.25411072 L32.4937267,4.84342784 C32.8391885,4.61989376 33.3167385,4.4776448 33.7739673,4.4776448 C34.7798707,4.4776448 34.8916377,5.20921088 34.8916377,5.61563648 L34.8916377,5.71724288 C32.9915981,5.70708224 31.9348915,6.3573632 31.9348915,7.54615808 C31.9348915,8.25740288 32.4429235,8.95848704 33.4386662,8.95848704 Z M33.6723609,8.29804544 C33.2151321,8.29804544 32.8290278,8.02370816 32.8290278,7.44455168 C32.8290278,6.48945152 33.9365376,6.31672064 34.911959,6.33704192 L34.911959,7.19053568 C34.911959,7.28198144 34.8916377,7.38358784 34.8611558,7.4750336 C34.7189069,7.89161984 34.3124813,8.29804544 33.6723609,8.29804544 Z M37.848384,3.09579776 C38.2040064,3.09579776 38.4275405,2.8519424 38.4173798,2.5471232 C38.4173798,2.23214336 38.2040064,1.988288 37.8687053,1.988288 C37.5435648,1.988288 37.3098701,2.23214336 37.3098701,2.5471232 C37.3098701,2.8519424 37.5334041,3.09579776 37.848384,3.09579776 Z M38.3157734,8.84672 L38.3157734,3.92897024 L37.4216371,3.92897024 L37.4216371,8.84672 L38.3157734,8.84672 Z M40.896576,8.84672 L40.896576,1.6326656 L40.0024396,1.6326656 L40.0024396,8.84672 L40.896576,8.84672 Z M43.7212339,8.95848704 C44.422318,8.95848704 44.9506713,8.61302528 45.2250086,8.22692096 L45.2554905,8.22692096 L45.326615,8.84672 L46.1394662,8.84672 C46.0785024,8.51141888 46.0581811,8.09483264 46.0581811,7.66808576 L46.0581811,5.82900992 C46.0581811,4.84342784 45.692398,3.8172032 44.1886233,3.8172032 C43.5688243,3.8172032 42.9795072,3.98993408 42.5730816,4.25411072 L42.7762944,4.84342784 C43.1217561,4.61989376 43.5993062,4.4776448 44.056535,4.4776448 C45.0624384,4.4776448 45.1742054,5.20921088 45.1742054,5.61563648 L45.1742054,5.71724288 C43.2741657,5.70708224 42.2174592,6.3573632 42.2174592,7.54615808 C42.2174592,8.25740288 42.7254912,8.95848704 43.7212339,8.95848704 Z M43.9549286,8.29804544 C43.4976998,8.29804544 43.1115955,8.02370816 43.1115955,7.44455168 C43.1115955,6.48945152 44.2191052,6.31672064 45.1945267,6.33704192 L45.1945267,7.19053568 C45.1945267,7.28198144 45.1742054,7.38358784 45.1437235,7.4750336 C45.0014745,7.89161984 44.5950489,8.29804544 43.9549286,8.29804544 Z M50.152919,8.95848704 C51.2502681,8.95848704 52.3577779,8.084672 52.3577779,6.32688128 C52.3679385,4.8332672 51.5042841,3.8172032 50.2850073,3.8172032 C49.4924774,3.8172032 48.9234816,4.1728256 48.6085017,4.72150016 L48.5881804,4.72150016 L48.5881804,1.6326656 L47.7042048,1.6326656 L47.7042048,7.57664 C47.7042048,8.01354752 47.6838835,8.51141888 47.6635622,8.84672 L48.4357708,8.84672 L48.4764134,8.0338688 L48.5068953,8.0338688 C48.8726784,8.68414976 49.4416742,8.95848704 50.152919,8.95848704 Z M49.9700275,8.24724224 C49.3197465,8.24724224 48.8015539,7.82049536 48.628823,7.20069632 C48.6085017,7.09908992 48.5881804,6.98732288 48.5881804,6.87555584 L48.5881804,5.99158016 C48.5881804,5.8493312 48.6186624,5.72740352 48.6389836,5.62579712 C48.8218752,4.94503424 49.390871,4.528448 50.0005094,4.528448 C50.9556096,4.528448 51.4636416,5.37178112 51.4636416,6.3573632 C51.4636416,7.48519424 50.9048064,8.24724224 49.9700275,8.24724224 Z M54.582958,8.84672 L54.582958,1.6326656 L53.6888217,1.6326656 L53.6888217,8.84672 L54.582958,8.84672 Z M58.3525555,8.9483264 C59.1349247,8.9483264 59.6734387,8.78575616 59.9884185,8.6435072 L59.8360089,8.00338688 C59.5007078,8.14563584 59.1146035,8.25740288 58.4744831,8.25740288 C57.5803468,8.25740288 56.8081382,7.75953152 56.7878169,6.55041536 L60.2424345,6.55041536 C60.2525951,6.4589696 60.2729164,6.31672064 60.2729164,6.13382912 C60.2729164,5.22953216 59.8461695,3.8172032 58.2407884,3.8172032 C56.8081382,3.8172032 55.9343231,4.9856768 55.9343231,6.46913024 C55.9343231,7.95258368 56.8386201,8.9483264 58.3525555,8.9483264 Z M59.409262,5.91029504 L56.7979775,5.91029504 C56.869102,5.290496 57.265367,4.45732352 58.1696639,4.45732352 C59.1755673,4.45732352 59.4194227,5.3412992 59.409262,5.91029504 Z M65.9425535,8.95848704 C67.1313484,8.95848704 68.3912678,8.16595712 68.3912678,6.34720256 C68.3912678,4.84342784 67.4361676,3.8172032 66.0238386,3.8172032 C64.6623129,3.8172032 63.585285,4.782464 63.585285,6.42848768 C63.585285,7.9830656 64.6115097,8.95848704 65.9425535,8.95848704 Z M65.9831961,8.2878848 C65.109381,8.2878848 64.489582,7.4750336 64.489582,6.39800576 C64.489582,5.46322688 64.9468108,4.48780544 66.0035174,4.48780544 C67.0602239,4.48780544 67.4768102,5.544512 67.4768102,6.37768448 C67.4768102,7.48519424 66.8366898,8.2878848 65.9831961,8.2878848 Z M70.6164479,8.84672 L70.6164479,5.88997376 C70.6164479,5.73756416 70.6367692,5.58515456 70.6774117,5.47338752 C70.8298213,4.97551616 71.2870501,4.55892992 71.8763673,4.55892992 C72.7197004,4.55892992 73.0143589,5.21937152 73.0143589,6.01190144 L73.0143589,8.84672 L73.9084953,8.84672 L73.9084953,5.91029504 C73.9084953,4.2236288 72.8517887,3.8172032 72.1710258,3.8172032 C71.3581746,3.8172032 70.7891788,4.274432 70.5453234,4.74182144 L70.5250021,4.74182144 L70.4741989,3.92897024 L69.681669,3.92897024 C69.7121509,4.33539584 69.7223116,4.75198208 69.7223116,5.26001408 L69.7223116,8.84672 L70.6164479,8.84672 Z M79.4358834,8.9483264 C79.7813452,8.9483264 80.0556825,8.8975232 80.2284133,8.82639872 L80.1877708,8.15579648 C80.0760037,8.1862784 79.9032729,8.21676032 79.6695781,8.21676032 C79.1717068,8.21676032 78.9989759,7.87129856 78.9989759,7.26166016 L78.9989759,4.60973312 L80.2792165,4.60973312 L80.2792165,3.92897024 L78.9989759,3.92897024 L78.9989759,2.51664128 L78.1251609,2.750336 L78.1251609,3.92897024 L77.3631129,3.92897024 L77.3631129,4.60973312 L78.1251609,4.60973312 L78.1251609,7.29214208 C78.1251609,7.87129856 78.2166066,8.30820608 78.4706226,8.57238272 C78.6839961,8.81623808 79.0192972,8.9483264 79.4358834,8.9483264 Z M82.382469,8.84672 L82.382469,5.87981312 C82.382469,5.70708224 82.3926296,5.57499392 82.4434328,5.45306624 C82.6060031,4.96535552 83.0632319,4.55892992 83.6423884,4.55892992 C84.4857215,4.55892992 84.78038,5.22953216 84.78038,6.02206208 L84.78038,8.84672 L85.6745164,8.84672 L85.6745164,5.92045568 C85.6745164,4.2236288 84.6178098,3.8172032 83.9573682,3.8172032 C83.6220671,3.8172032 83.3070872,3.9188096 83.0429106,4.0712192 C82.7685733,4.2236288 82.5450392,4.44716288 82.4027903,4.70117888 L82.382469,4.70117888 L82.382469,1.6326656 L81.4883327,1.6326656 L81.4883327,8.84672 L82.382469,8.84672 Z M89.3933106,8.9483264 C90.1756799,8.9483264 90.7141938,8.78575616 91.0291736,8.6435072 L90.876764,8.00338688 C90.5414629,8.14563584 90.1553586,8.25740288 89.5152383,8.25740288 C88.621102,8.25740288 87.8488933,7.75953152 87.828572,6.55041536 L91.2831896,6.55041536 C91.2933503,6.4589696 91.3136716,6.31672064 91.3136716,6.13382912 C91.3136716,5.22953216 90.8869247,3.8172032 89.2815436,3.8172032 C87.8488933,3.8172032 86.9750783,4.9856768 86.9750783,6.46913024 C86.9750783,7.95258368 87.8793752,8.9483264 89.3933106,8.9483264 Z M90.4500172,5.91029504 L87.8387327,5.91029504 C87.9098572,5.290496 88.3061221,4.45732352 89.2104191,4.45732352 C90.2163224,4.45732352 90.4601778,5.3412992 90.4500172,5.91029504 Z" id="Availableonthe" fill-rule="nonzero"></path>
                                            <path d="M22.54883,25.16064 L23.90473,21.0542 L28.53416,21.0542 L29.9288,25.16064 L31.73021,25.16064 L27.27511,12.10526 L25.24126,12.10526 L20.80553,25.16064 L22.54883,25.16064 Z M28.1855,19.73704 L24.25339,19.73704 L25.53181,15.95989 C25.78362,15.16572 25.99669,14.37155 26.19039,13.59675 L26.22913,13.59675 C26.42283,14.35218 26.61653,15.12698 26.90708,15.97926 L28.1855,19.73704 Z M34.5309694,28.9959 L34.5309694,23.90159 L34.5697094,23.90159 C35.1314394,24.83135 36.2161594,25.37371 37.4558394,25.37371 C39.6640194,25.37371 41.7172394,23.70789 41.7172394,20.33751 C41.7172394,17.49012 40.0126794,15.57249 37.7463894,15.57249 C36.2161594,15.57249 35.1120694,16.25044 34.4147494,17.39327 L34.3760094,17.39327 L34.2985294,15.78556 L32.7682994,15.78556 C32.8070394,16.67658 32.8457794,17.64508 32.8457794,18.84602 L32.8457794,28.9959 L34.5309694,28.9959 Z M37.1652894,24.03718 C35.9449794,24.03718 34.9183694,23.22364 34.6084494,22.04207 C34.5697094,21.829 34.5309694,21.59656 34.5309694,21.34475 L34.5309694,19.73704 C34.5309694,19.5046 34.5890794,19.25279 34.6471894,19.03972 C34.9764794,17.7613 36.0611994,16.92839 37.2233994,16.92839 C39.0248094,16.92839 40.0126794,18.5361 40.0126794,20.41499 C40.0126794,22.56506 38.9666994,24.03718 37.1652894,24.03718 Z M44.8666588,28.9959 L44.8666588,23.90159 L44.9053988,23.90159 C45.4671288,24.83135 46.5518488,25.37371 47.7915288,25.37371 C49.9997088,25.37371 52.0529288,23.70789 52.0529288,20.33751 C52.0529288,17.49012 50.3483688,15.57249 48.0820788,15.57249 C46.5518488,15.57249 45.4477588,16.25044 44.7504388,17.39327 L44.7116988,17.39327 L44.6342188,15.78556 L43.1039888,15.78556 C43.1427288,16.67658 43.1814688,17.64508 43.1814688,18.84602 L43.1814688,28.9959 L44.8666588,28.9959 Z M47.5009788,24.03718 C46.2806688,24.03718 45.2540588,23.22364 44.9441388,22.04207 C44.9053988,21.829 44.8666588,21.59656 44.8666588,21.34475 L44.8666588,19.73704 C44.8666588,19.5046 44.9247688,19.25279 44.9828788,19.03972 C45.3121688,17.7613 46.3968888,16.92839 47.5590888,16.92839 C49.3604988,16.92839 50.3483688,18.5361 50.3483688,20.41499 C50.3483688,22.56506 49.3023888,24.03718 47.5009788,24.03718 Z M59.6689276,25.35434 C62.7487576,25.35434 64.2402476,23.61104 64.2402476,21.59656 C64.2402476,19.67893 63.1167876,18.61358 60.9086076,17.7613 C59.1071976,17.06398 58.3130276,16.46351 58.3130276,15.2432 C58.3130276,14.35218 58.9909776,13.28683 60.7730176,13.28683 C61.9545876,13.28683 62.8262376,13.67423 63.2523776,13.90667 L63.7172576,12.5314 C63.1361576,12.20211 62.1676576,11.89219 60.8311276,11.89219 C58.2936576,11.89219 56.6084676,13.40305 56.6084676,15.4369 C56.6084676,17.27705 57.9256276,18.38114 60.0563276,19.13657 C61.8189976,19.81452 62.5163176,20.51184 62.5163176,21.73215 C62.5163176,23.04931 61.5090776,23.9597 59.7851476,23.9597 C58.6229476,23.9597 57.5188576,23.5723 56.7634276,23.10742 L56.3372876,24.52143 C57.0346076,24.98631 58.4098776,25.35434 59.6689276,25.35434 Z M68.629347,25.35434 C69.287927,25.35434 69.810917,25.25749 70.140207,25.1219 L70.062727,23.84348 C69.849657,23.90159 69.520367,23.9597 69.074857,23.9597 C68.125727,23.9597 67.796437,23.30112 67.796437,22.13892 L67.796437,17.08335 L70.237057,17.08335 L70.237057,15.78556 L67.796437,15.78556 L67.796437,13.09313 L66.130617,13.53864 L66.130617,15.78556 L64.677867,15.78556 L64.677867,17.08335 L66.130617,17.08335 L66.130617,22.19703 C66.130617,23.30112 66.304947,24.13403 66.789197,24.63765 C67.195967,25.10253 67.835177,25.35434 68.629347,25.35434 Z M75.1685164,25.37371 C77.4348064,25.37371 79.8366864,23.86285 79.8366864,20.39562 C79.8366864,17.52886 78.0159064,15.57249 75.3234764,15.57249 C72.7278964,15.57249 70.6746764,17.41264 70.6746764,20.55058 C70.6746764,23.51419 72.6310464,25.37371 75.1685164,25.37371 Z M75.2459964,24.09529 C73.5801764,24.09529 72.3986064,22.54569 72.3986064,20.49247 C72.3986064,18.71043 73.2702564,16.85091 75.2847364,16.85091 C77.2992164,16.85091 78.0933864,18.86539 78.0933864,20.45373 C78.0933864,22.56506 76.8730764,24.09529 75.2459964,24.09529 Z M82.9861058,25.16064 L82.9861058,20.16318 C82.9861058,19.87263 83.0248458,19.60145 83.0635858,19.36901 C83.2960258,18.09059 84.1483058,17.1802 85.3492458,17.1802 C85.5816858,17.1802 85.7560158,17.19957 85.9303458,17.23831 L85.9303458,15.6306 C85.7753858,15.59186 85.6397958,15.57249 85.4460958,15.57249 C84.3032658,15.57249 83.2766558,16.36666 82.8505158,17.62571 L82.7730358,17.62571 L82.7149258,15.78556 L81.2234358,15.78556 C81.2815458,16.65721 81.3009158,17.60634 81.3009158,18.71043 L81.3009158,25.16064 L82.9861058,25.16064 Z M90.6874752,25.35434 C92.1789652,25.35434 93.2055752,25.04442 93.8060452,24.77324 L93.5154952,23.55293 C92.8762852,23.82411 92.1402252,24.03718 90.9199152,24.03718 C89.2153552,24.03718 87.7432352,23.08805 87.7044952,20.78302 L94.2902952,20.78302 C94.3096652,20.60869 94.3484052,20.33751 94.3484052,19.98885 C94.3484052,18.26492 93.5348652,15.57249 90.4744052,15.57249 C87.7432352,15.57249 86.0774152,17.80004 86.0774152,20.62806 C86.0774152,23.45608 87.8013452,25.35434 90.6874752,25.35434 Z M92.7019552,19.56271 L87.7238652,19.56271 C87.8594552,18.38114 88.6148852,16.7928 90.3388152,16.7928 C92.2564452,16.7928 92.7213252,18.47799 92.7019552,19.56271 Z" id="AppStore" fill-rule="nonzero"></path>
                                        </g>
                                    </g>
                                </g>
                            </g>
                        </g>
                    </g>
                </g>
            </g>
        </g>
    </g>
</svg>