<svg id="Capa_1" enable-background="new 0 0 512 512" height="512" viewBox="0 0 512 512" width="512" xmlns="http://www.w3.org/2000/svg"><g><g><g><path d="m292.302 154.264c-20.34 0-36.299 22.686-36.299 22.686s-15.054-22.686-36.308-22.686c-20.673 0-37.556 17.056-38.661 37.707-.622 11.667 3.137 20.546 8.435 28.587 10.586 16.066 66.601 53.061 66.601 53.061s55.805-36.853 66.461-53.061c5.309-8.078 9.058-16.92 8.433-28.587-1.104-20.651-17.987-37.707-38.662-37.707z" fill="#b2f0fb"/></g></g><g fill="#020288"><path d="m408.493 52.108h-97.157c-1.733-29.025-25.89-52.108-55.336-52.108s-53.604 23.083-55.336 52.108h-97.157c-17.8 0-32.281 14.481-32.281 32.281v395.329c0 17.8 14.481 32.281 32.281 32.281h304.986c17.8 0 32.281-14.481 32.281-32.281v-395.328c0-17.8-14.481-32.282-32.281-32.282zm-197.444 20c2.906 0 5.668-1.264 7.567-3.463s2.749-5.115 2.326-7.99c-.251-1.709-.378-3.46-.378-5.207 0-19.546 15.897-35.448 35.436-35.448s35.435 15.902 35.435 35.448c0 1.747-.127 3.498-.378 5.207-.423 2.875.427 5.791 2.326 7.99s4.661 3.463 7.567 3.463h39.103v23.79h-168.108v-23.79zm165.947 43.79v332.311h-241.992v-332.311zm43.778 363.821c0 6.771-5.51 12.281-12.281 12.281h-304.986c-6.771 0-12.281-5.51-12.281-12.281v-395.329c0-6.771 5.51-12.281 12.281-12.281h48.438v23.79h-26.941c-5.522 0-10 4.478-10 10v352.311c0 5.522 4.478 10 10 10h261.992c5.522 0 10-4.478 10-10v-352.312c0-5.522-4.478-10-10-10h-26.941v-23.79h48.439c6.771 0 12.281 5.51 12.281 12.281v395.33z"/><path d="m174.201 337.678h77.227c5.522 0 10-4.478 10-10s-4.478-10-10-10h-77.227c-5.523 0-10 4.478-10 10s4.478 10 10 10z"/><path d="m306.299 337.678h31.5c5.522 0 10-4.478 10-10s-4.478-10-10-10h-31.5c-5.522 0-10 4.478-10 10s4.477 10 10 10z"/><path d="m174.201 391.737h77.227c5.522 0 10-4.478 10-10s-4.478-10-10-10h-77.227c-5.523 0-10 4.478-10 10s4.478 10 10 10z"/><path d="m306.299 391.737h31.5c5.522 0 10-4.478 10-10s-4.478-10-10-10h-31.5c-5.522 0-10 4.478-10 10s4.477 10 10 10z"/></g></g></svg>