<?xml version="1.0" encoding="UTF-8"?>
<svg width="119px" height="39px" viewBox="0 0 119 39" version="1.1" xmlns="http://www.w3.org/2000/svg" xmlns:xlink="http://www.w3.org/1999/xlink">
    <!-- Generator: Sketch 62 (91390) - https://sketch.com -->
    <title>Group 27</title>
    <desc>Created with Sketch.</desc>
    <g id="Symbols" stroke="none" stroke-width="1" fill="none" fill-rule="evenodd">
        <g id="#-FOOTER" transform="translate(-266.000000, -383.000000)">
            <g id="Group-76">
                <g transform="translate(0.000000, 63.000000)">
                    <g id="Group-64" transform="translate(131.000000, 283.000000)">
                        <g id="Group-31">
                            <g id="Group-48">
                                <g id="Group-32" transform="translate(0.000000, 37.000000)">
                                    <g id="Group-27" transform="translate(135.000000, -0.000000)">
                                        <rect id="Rectangle-4" fill="#343434" x="0" y="0" width="118.5408" height="38.94912" rx="3.84"></rect>
                                        <g id="Group-25" transform="translate(7.620480, 5.927040)" fill="#FFFFFF">
                                            <g id="Group-24" transform="translate(22.861440, 0.000000)">
                                                <path d="M0,2.95699339 C0,1.15720078 1.34142664,0 3.0100174,0 C4.12796247,0 4.85857529,0.531209244 5.31467109,1.18290445 L4.4975666,1.65467395 C4.18813058,1.22574391 3.64608033,0.89159616 3.0100174,0.89159616 C1.87541866,0.89159616 1.03199062,1.74892076 1.03199062,2.95699339 C1.03199062,4.14846574 1.87488144,5.02239062 3.0100174,5.02239062 C3.59504487,5.02239062 4.11077158,4.756786 4.36863493,4.50831716 L4.36863493,3.62528889 L2.64900871,3.62528889 L2.64900871,2.74279612 L5.36624376,2.74279612 L5.36624376,4.87673647 C4.80753984,5.50272801 3.99903079,5.92255467 3.0100174,5.92255467 C1.34142664,5.92255467 0,4.7487536 0,2.95699339 L0,2.95699339 Z" id="Shape"></path>
                                                <polygon id="Shape" points="6.77376 5.71746078 6.77376 0 10.7029528 0 10.7029528 0.883028269 7.77942707 0.883028269 7.77942707 2.35724102 10.6433219 2.35724102 10.6433219 3.24026929 7.77942707 3.24026929 7.77942707 4.83496801 10.7029528 4.83496801 10.7029528 5.71746078 6.77376 5.71746078"></polygon>
                                                <polygon id="Shape" points="13.5908971 5.71692529 13.5908971 0.883028269 11.85408 0.883028269 11.85408 0 16.3339185 0 16.3339185 0.883028269 14.5976386 0.883028269 14.5976386 5.71692529"></polygon>
                                                <polygon id="Shape" points="19.47456 5.71746078 19.47456 0 20.4802271 0 20.4802271 5.71746078"></polygon>
                                                <polygon id="Shape" points="22.9048171 5.71692529 22.9048171 0.883028269 21.168 0.883028269 21.168 0 25.6478385 0 25.6478385 0.883028269 23.9110214 0.883028269 23.9110214 5.71692529"></polygon>
                                                <path d="M29.6352,2.95699339 C29.6352,1.25091209 30.847695,0 32.5678584,0 C34.278352,0 35.4999796,1.25144758 35.4999796,2.95699339 C35.4999796,4.6625392 34.278352,5.91398678 32.5678584,5.91398678 C30.8471577,5.91398678 29.6352,4.6625392 29.6352,2.95699339 L29.6352,2.95699339 Z M34.467989,2.95699339 C34.467989,1.77408894 33.719648,0.89159616 32.5678584,0.89159616 C31.4069361,0.89159616 30.6671906,1.77408894 30.6671906,2.95699339 C30.6671906,4.13079446 31.4069361,5.02239062 32.5678584,5.02239062 C33.719648,5.02239062 34.467989,4.13079446 34.467989,2.95699339 L34.467989,2.95699339 Z" id="Shape"></path>
                                                <polygon id="Shape" points="40.4069164 5.71746078 37.4146271 1.62897028 37.4146271 5.71746078 36.40896 5.71746078 36.40896 0 37.4409506 0 40.3730718 3.96050763 40.3730718 0 41.3792761 0 41.3792761 5.71746078"></polygon>
                                            </g>
                                            <g id="Group-22" transform="translate(0.000000, 10.160640)">
                                                <g id="Group-21" transform="translate(22.861440, 0.846720)">
                                                    <path d="M51.5149982,12.2864518 L50.6479327,13.1014725 C50.4480886,13.2112486 50.2487817,13.338696 50.050012,13.4291943 C49.4477936,13.7017603 48.8353682,13.7703035 48.2911691,13.7703035 C47.712051,13.7703035 46.8041571,13.7333544 45.8785351,13.0655944 C44.5919044,12.1616819 44.02944,10.6092872 44.02944,9.25609589 C44.02944,6.45439552 46.31744,5.08032 48.1831888,5.08032 C48.8359054,5.08032 49.5058129,5.24310993 50.0505492,5.58636106 C50.9562942,6.18290048 51.1905201,6.95883011 51.3205262,7.37490832 L47.0582599,9.09116399 L45.6625746,9.19933361 C46.1143726,11.4960639 47.6733715,12.8321194 49.396221,12.8321194 C50.2568399,12.8321194 50.8955889,12.552592 51.4816908,12.2634256 C51.4811536,12.2639611 51.5988038,12.2029149 51.5149982,12.2864518 L51.5149982,12.2864518 Z M48.9438857,7.71708846 C49.2903896,7.59178306 49.4698195,7.48307794 49.4698195,7.23193163 C49.4698195,6.51008682 48.6505661,5.67685941 47.6728343,5.67685941 C46.9481308,5.67685941 45.5889761,6.23912726 45.5889761,8.19099994 C45.5889761,8.49569556 45.6249695,8.82020443 45.643772,9.14471331 L48.9438857,7.71708846 L48.9438857,7.71708846 Z" id="Shape"></path>
                                                    <path d="M42.939624,11.402792 C42.939624,12.105359 43.0653324,12.2145996 43.6611042,12.26922 C43.9716146,12.3056335 44.2810506,12.3222338 44.5878006,12.3581118 L43.9173559,12.7559833 L40.7225364,12.7559833 C41.1415644,12.2140642 41.2135512,12.1605148 41.2135512,11.7990569 L41.2135512,11.3958306 L41.2065674,0.652230704 L39.79584,0.652230704 L41.1533831,0 L43.7459842,0 C43.184057,0.323973379 43.0164458,0.522105859 42.9439217,1.15398782 L42.939624,11.402792 L42.939624,11.402792 Z" id="Shape"></path>
                                                    <path d="M38.0894947,5.73415718 C38.5052994,6.07526635 39.3745137,6.79871764 39.3745137,8.17225767 C39.3745137,9.51045515 38.6175774,10.1412661 37.8541944,10.738341 C37.6199685,10.9734225 37.3465259,11.2283173 37.3465259,11.6224403 C37.3465259,12.0219182 37.6205057,12.238793 37.8176638,12.4005119 L38.4725292,12.904411 C39.2686823,13.574313 39.9944602,14.1885237 39.9944602,15.4362228 C39.9944602,17.1364137 38.3441348,18.8499919 35.2255999,18.8499919 C32.598617,18.8499919 31.32864,17.6033637 31.32864,16.2662372 C31.32864,15.6150775 31.653118,14.6934937 32.725937,14.0626828 C33.8497915,13.377787 35.3727969,13.2862176 36.1877525,13.2326683 C35.9331124,12.9049465 35.642479,12.5616953 35.642479,12.0015695 C35.642479,11.6952674 35.73488,11.5126642 35.8240577,11.2973959 C35.6258253,11.3161382 35.4259812,11.3354159 35.2444024,11.3354159 C33.3217088,11.3354159 32.234385,9.90564913 32.234385,8.49623105 C32.234385,7.66514562 32.6147335,6.74356185 33.3958445,6.07473085 C34.4294468,5.22650964 35.6618187,5.08032 36.6411622,5.08032 L40.3769575,5.08032 L39.215498,5.73415718 L38.0894947,5.73415718 L38.0894947,5.73415718 Z M36.8044757,13.7563807 C36.6562043,13.7371029 36.5670265,13.7371029 36.3875966,13.7371029 C36.2232087,13.7371029 35.2438652,13.7724454 34.4853172,14.0262692 C34.0840173,14.1724589 32.9241695,14.6046019 32.9241695,15.8887145 C32.9241695,17.1696142 34.1764184,18.0928045 36.114154,18.0928045 C37.8541944,18.0928045 38.778742,17.2611836 38.778742,16.1414673 C38.7782047,15.2198835 38.1802841,14.7336557 36.8044757,13.7563807 L36.8044757,13.7563807 Z M37.3261118,10.3227983 C37.7451397,9.90618462 37.7816703,9.32999395 37.7816703,9.00227212 C37.7816703,7.70263015 37.0043198,5.67846589 35.4974308,5.67846589 C35.0273674,5.67846589 34.5180873,5.9140829 34.2290655,6.27714728 C33.9228527,6.65359899 33.8309889,7.14196878 33.8309889,7.61159631 C33.8309889,8.82181091 34.5385015,10.8288394 36.0964259,10.8288394 C36.5503728,10.8288394 37.0392388,10.6087517 37.3261118,10.3227983 L37.3261118,10.3227983 Z" id="Shape"></path>
                                                    <path d="M26.4381509,13.7333544 C23.5565279,13.7333544 22.01472,11.4960639 22.01472,9.47136415 C22.01472,7.10501975 23.9529928,5.08032 26.7099818,5.08032 C29.375107,5.08032 31.044235,7.16017555 31.044235,9.34391677 C31.044235,11.4762507 29.3944468,13.7333544 26.4381509,13.7333544 L26.4381509,13.7333544 Z M28.7051995,12.271458 C29.1435672,11.6931254 29.2499358,10.9712806 29.2499358,10.2676425 C29.2499358,8.67615677 28.489239,5.64098137 26.2409929,5.64098137 C25.6430722,5.64098137 25.0408539,5.87392091 24.6067839,6.25465656 C23.8987341,6.88707402 23.7724885,7.68121042 23.7724885,8.4608885 C23.7724885,10.2462228 24.6572821,13.1908998 26.8544928,13.1908998 C27.5641542,13.1908998 28.2877832,12.8487197 28.7051995,12.271458 L28.7051995,12.271458 Z" id="Shape"></path>
                                                    <path d="M17.1226192,13.7333544 C14.2404591,13.7333544 12.7008,11.4960639 12.7008,9.47136415 C12.7008,7.10501975 14.6396101,5.08032 17.3955246,5.08032 C20.0590381,5.08032 21.7265545,7.16017555 21.7265545,9.34391677 C21.7270917,11.4762507 20.0794523,13.7333544 17.1226192,13.7333544 L17.1226192,13.7333544 Z M19.3902051,12.271458 C19.8253495,11.6931254 19.933867,10.9712806 19.933867,10.2676425 C19.933867,8.67615677 19.1710212,5.64098137 16.924924,5.64098137 C16.3248545,5.64098137 15.7290827,5.87392091 15.2939383,6.25465656 C14.5848141,6.88707402 14.4591057,7.68121042 14.4591057,8.4608885 C14.4591057,10.2462228 15.3476598,13.1908998 17.54111,13.1908998 C18.2491598,13.1908998 18.9717143,12.8487197 19.3902051,12.271458 L19.3902051,12.271458 Z" id="Shape"></path>
                                                    <path d="M11.7096822,12.4679932 L9.2793201,13.0222286 C8.29460443,13.1769862 7.41034803,13.3135369 6.47398174,13.3135369 C1.7857037,13.3135369 0,9.87352869 0,7.18213992 C0,3.89421174 2.53082134,0.84672 6.86453727,0.84672 C7.78156381,0.84672 8.66420857,0.98112879 9.46788268,1.19907452 C10.7416202,1.55624848 11.3368548,1.99535289 11.7096822,2.25346061 L10.2978803,3.59005161 L9.70264577,3.72285392 L10.1270459,3.0481325 C9.55222548,2.48854212 8.49552296,1.45557576 6.4900982,1.45557576 C3.80885657,1.45557576 1.7857037,3.48723692 1.7857037,6.45333369 C1.7857037,9.63898267 4.09572955,12.6356026 7.79929191,12.6356026 C8.88769014,12.6356026 9.44800571,12.4176568 9.95674861,12.2141694 L9.95674861,9.48315416 L7.39100828,9.6207759 L8.75123745,8.89250517 L12.3521917,8.89250517 L11.9122124,9.31500929 C11.7929506,9.41568201 11.7773713,9.44995358 11.744064,9.58489786 C11.7263359,9.7391199 11.7102194,10.2296317 11.7102194,10.4020605 L11.7102194,12.4679932 L11.7096822,12.4679932 Z" id="Shape"></path>
                                                    <path d="M56.8005465,12.4015829 L56.8005465,17.0046823 L55.88352,17.0046823 L55.88352,5.2923753 L56.8005465,5.2923753 L56.8005465,6.62575334 C57.3973928,5.7641448 58.4890143,5.08032 59.7573796,5.08032 C62.0308748,5.08032 63.5630129,6.79978863 63.5630129,9.52170051 C63.5630129,12.2254056 62.0308748,13.9807523 59.7573796,13.9807523 C58.5604639,13.9812878 57.4881821,13.3660061 56.8005465,12.4015829 L56.8005465,12.4015829 Z M62.57776,9.522236 C62.57776,7.4707616 61.504941,5.9060505 59.6026616,5.9060505 C58.4213251,5.9060505 57.2915613,6.83191822 56.8005465,7.63837096 L56.8005465,11.3873588 C57.2915613,12.1959535 58.4213251,13.1550218 59.6026616,13.1550218 C61.504941,13.1550218 62.57776,11.5769234 62.57776,9.522236 L62.57776,9.522236 Z" id="Shape"></path>
                                                    <polygon id="Shape" points="65.19744 13.4052115 65.19744 1.69344 66.1139293 1.69344 66.1139293 13.4052115 65.19744 13.4052115"></polygon>
                                                    <path d="M73.9273948,13.7472773 C73.8661523,13.4532915 73.8199518,13.1946483 73.7861072,12.9777736 C73.7576348,12.7619698 73.7420556,12.5413466 73.7420556,12.316975 C73.4272474,12.7769636 72.9818959,13.1598412 72.4129849,13.4618594 C71.8435366,13.7649485 71.303098,13.9143511 70.5606665,13.9143511 C69.6672774,13.9143511 68.9742697,13.6953344 68.4789571,13.2508751 C67.9857935,12.8069512 67.7376,12.2055924 67.7376,11.4446566 C67.7376,10.6847917 68.096997,10.0679036 68.8136423,9.59613406 C69.5302875,9.12222259 70.4569839,8.88714108 71.6028642,8.88714108 L73.7415183,8.88714108 L73.7415183,7.83329049 C73.7415183,7.2265767 73.533616,6.74998776 73.1199602,6.40352367 C72.7041556,6.05759507 72.1207397,5.8819533 71.3638034,5.8819533 C70.6724073,5.8819533 70.1115545,6.04206577 69.6844683,6.3537228 C69.2611426,6.67180576 69.0484054,7.06592875 69.0484054,7.5409112 L68.1098902,7.5409112 L68.0905505,7.49539428 C68.0561687,6.85547992 68.3505627,6.29321207 68.9753441,5.80859074 C69.5969022,5.3239694 70.412395,5.08032 71.415376,5.08032 C72.4145965,5.08032 73.2236428,5.32022095 73.8339194,5.79895186 C74.4431215,6.27286333 74.7487971,6.95775912 74.7487971,7.85310373 L74.7487971,12.035841 C74.7487971,12.3362527 74.7627646,12.62649 74.8009069,12.9092304 C74.8395864,13.1925063 74.9013662,13.4752467 74.9835601,13.7483483 L73.9273948,13.7483483 L73.9273948,13.7472773 Z M70.6734817,13.0811237 C71.4524439,13.0811237 72.0122222,12.9076239 72.5848938,12.5643728 C73.1532676,12.2227282 73.5395254,11.7777333 73.7425928,11.2390272 L73.7425928,9.61112787 L71.5937315,9.61112787 C70.7728665,9.61112787 70.0932891,9.79212457 69.5587599,10.1578664 C69.0231562,10.5220018 68.7513253,10.9627127 68.7513253,11.4751797 C68.7513253,11.9581945 68.9232342,12.3453561 69.2654404,12.6382709 C69.6076465,12.9343986 70.0760983,13.0811237 70.6734817,13.0811237 L70.6734817,13.0811237 Z" id="Shape"></path>
                                                    <path d="M77.4130659,16.0349042 C77.6086123,16.1216541 77.9432974,16.1757389 78.1560347,16.1757389 C78.7168875,16.1757389 79.107443,15.9470833 79.4582446,15.1390241 L80.1270777,13.6289333 L76.5143047,5.08032 L77.5371626,5.08032 L80.6358206,12.4883328 L83.7043944,5.08032 L84.7417572,5.08032 L80.3360544,15.4223 C79.8788842,16.4879314 79.1595529,17.0003984 78.1716139,17.0003984 C77.8750711,17.0003984 77.4845155,16.9473846 77.2551246,16.8777705 L77.4130659,16.0349042 L77.4130659,16.0349042 Z" id="Path"></path>
                                                </g>
                                                <path d="M0.545918456,18.5982681 C0.215238681,18.5091965 0,18.1808902 0,17.6728512 L0,0.903230043 C0,0.432708481 0.182245745,0.115375972 0.471140465,3.90798505e-14 L0.471140465,3.90798505e-14 L8.71207749,9.3454716 L0.545918456,18.5982681 L0.545918456,18.5982681 Z M1.68034266,18.2423028 L11.5998301,12.6202703 L9.18379791,9.88041682 L1.68034266,18.2423028 L1.68034266,18.2423028 Z M11.6681365,5.99606181 L1.88688788,0.451089913 L9.19810047,8.79477552 L11.6681365,5.99606181 L11.6681365,5.99606181 Z M12.3317863,6.37228366 L16.163541,8.54449833 C16.8890378,8.95578116 16.8956725,9.61876458 16.163541,10.0337122 L12.2348467,12.2603642 L9.67233872,9.33598464 L12.3317863,6.37228366 L12.3317863,6.37228366 Z" id="google-play"></path>
                                            </g>
                                        </g>
                                    </g>
                                </g>
                            </g>
                        </g>
                    </g>
                </g>
            </g>
        </g>
    </g>
</svg>