<svg xmlns="http://www.w3.org/2000/svg" width="20" height="16" viewBox="0 0 20 16">
  <metadata><?xpacket begin="﻿" id="W5M0MpCehiHzreSzNTczkc9d"?>
<x:xmpmeta xmlns:x="adobe:ns:meta/" x:xmptk="Adobe XMP Core 5.6-c142 79.160924, 2017/07/13-01:06:39        ">
   <rdf:RDF xmlns:rdf="http://www.w3.org/1999/02/22-rdf-syntax-ns#">
      <rdf:Description rdf:about=""/>
   </rdf:RDF>
</x:xmpmeta>
                                                                                                    
                                                                                                    
                                                                                                    
                                                                                                    
                                                                                                    
                                                                                                    
                                                                                                    
                                                                                                    
                                                                                                    
                                                                                                    
                                                                                                    
                                                                                                    
                                                                                                    
                                                                                                    
                                                                                                    
                                                                                                    
                                                                                                    
                                                                                                    
                                                                                                    
                                                                                                    
                           
<?xpacket end="w"?></metadata>
<defs>
    <style>
      .cls-1 {
        fill: #676767;
        fill-rule: evenodd;
      }
    </style>
  </defs>
  <path id="Forma_1" data-name="Forma 1" class="cls-1" d="M18.7,5.868L15.282,1.979a1.7,1.7,0,0,0-2.461.006,1.775,1.775,0,0,0-.44.778,1.7,1.7,0,0,0-2.287.163,1.808,1.808,0,0,0-.441.777,1.7,1.7,0,0,0-2.286.164,1.8,1.8,0,0,0-.436.76L5.319,2.959a1.7,1.7,0,0,0-2.461.006,1.844,1.844,0,0,0,0,2.542l6.189,6.407-3.671.6a2.086,2.086,0,0,0-1.74,2.077A1.39,1.39,0,0,0,5,16h8.572a4.883,4.883,0,0,0,3.535-1.516L18.537,13A5.3,5.3,0,0,0,18.7,5.868Zm-0.805,6.47-1.43,1.48a4,4,0,0,1-2.893,1.24H5a0.463,0.463,0,0,1-.455-0.471,1.152,1.152,0,0,1,.966-1.146l4.559-.742a0.46,0.46,0,0,0,.362-0.319,0.483,0.483,0,0,0-.111-0.478L3.5,4.841a0.883,0.883,0,0,1,0-1.218,0.809,0.809,0,0,1,1.171,0L9.225,8.333a0.444,0.444,0,0,0,.643,0,0.483,0.483,0,0,0,0-.666L8.009,5.744a0.881,0.881,0,0,1,.005-1.217,0.81,0.81,0,0,1,1.17,0l1.858,1.924a0.444,0.444,0,0,0,.643,0,0.483,0.483,0,0,0,0-.666L10.737,4.8a0.881,0.881,0,0,1,.005-1.217,0.81,0.81,0,0,1,1.17,0l0.953,0.986s0,0,0,0h0A0.443,0.443,0,0,0,13.5,4.567a0.483,0.483,0,0,0,0-.665l-0.039-.04a0.878,0.878,0,0,1,0-1.217,0.807,0.807,0,0,1,1.156-.016l3.4,3.873A4.339,4.339,0,0,1,17.895,12.338ZM7.815,2.5A4.094,4.094,0,0,0,4.091,0,4.17,4.17,0,0,0,0,4.235,4.255,4.255,0,0,0,2.412,8.091a0.444,0.444,0,0,0,.187.041,0.456,0.456,0,0,0,.415-0.277,0.479,0.479,0,0,0-.227-0.623,3.308,3.308,0,0,1-1.877-3A3.243,3.243,0,0,1,4.091.941a3.185,3.185,0,0,1,2.9,1.944,0.447,0.447,0,0,0,.6.235A0.477,0.477,0,0,0,7.815,2.5Z"/>
</svg>
